Coordinates
version=1
nRows=6
nColumns=63
inDegrees=yes

Units are S.I. units (second, meters, Newtons, ...)
If the header above contains a line with 'inDegrees', this indicates whether rotational values are in degrees (yes) or radians (no).

endheader
time	pelvis_tilt	pelvis_list	pelvis_rotation	pelvis_tx	pelvis_ty	pelvis_tz	hip_flexion_r	hip_adduction_r	hip_rotation_r	knee_angle_r	knee_angle_r_beta	ankle_angle_r	subtalar_angle_r	mtp_angle_r	hip_flexion_l	hip_adduction_l	hip_rotation_l	knee_angle_l	knee_angle_l_beta	ankle_angle_l	subtalar_angle_l	mtp_angle_l	L5_S1_Flex_Ext	L5_S1_Lat_Bending	L5_S1_axial_rotation	L4_L5_Flex_Ext	L4_L5_Lat_Bending	L4_L5_axial_rotation	L3_L4_Flex_Ext	L3_L4_Lat_Bending	L3_L4_axial_rotation	L2_L3_Flex_Ext	L2_L3_Lat_Bending	L2_L3_axial_rotation	L1_L2_Flex_Ext	L1_L2_Lat_Bending	L1_L2_axial_rotation	L1_T12_Flex_Ext	L1_T12_Lat_Bending	L1_T12_axial_rotation	Abs_r3	Abs_r2	Abs_r1	Abs_t1	Abs_t2	neck_flexion	neck_bending	neck_rotation	arm_flex_r	arm_add_r	arm_rot_r	elbow_flex_r	pro_sup_r	wrist_flex_r	wrist_dev_r	arm_flex_l	arm_add_l	arm_rot_l	elbow_flex_l	pro_sup_l	wrist_flex_l	wrist_dev_l
3.450000	-0.918210	-5.674547	101.234206	0.268683	0.748572	0.901596	0.357066	0.032782	-12.597844	4.473059	0.078070	24.772631	13.938866	0.000000	2.948799	1.059826	0.506838	6.346822	0.110773	25.378853	3.050579	0.000000	0.107850	0.035129	-1.019134	0.200288	0.046722	-1.082830	0.177187	0.085413	-1.082830	0.123262	0.085413	-0.891743	0.100150	0.071635	-0.828047	0.061626	0.054415	-0.764351	0.770362	0.397387	-5.668119	0.000000	0.000000	25.382857	0.845059	9.209837	14.697779	-12.600337	90.468356	25.458251	37.965389	-5.001739	-3.492379	-4.291257	-18.400243	38.482247	40.100578	79.023202	-3.400700	3.395206
3.475000	-0.889199	-5.893296	101.225416	0.269178	0.748503	0.902878	0.769586	0.009812	-12.680617	4.667752	0.081468	24.728270	13.887965	0.000000	3.342593	1.058204	0.592487	6.527530	0.113927	25.283667	2.841992	0.000000	0.123018	0.034161	-0.969073	0.228456	0.045434	-1.029640	0.202106	0.083059	-1.029640	0.140597	0.083059	-0.847939	0.114234	0.069661	-0.787372	0.070292	0.052915	-0.726804	0.878702	0.386435	-5.389691	0.000000	0.000000	25.966918	0.743593	8.306410	14.508715	-12.188880	84.455495	28.147305	45.452322	-5.010220	-2.767668	-3.549872	-17.878219	37.826252	41.818719	78.353379	-2.181082	4.599381
3.500000	-0.850497	-6.106079	101.230404	0.269585	0.748491	0.904061	1.176062	-0.006474	-12.845053	4.873848	0.085065	24.687055	13.952707	0.000000	3.730739	1.041255	0.586715	6.721650	0.117315	25.240751	2.798672	0.000000	0.138373	0.033364	-0.910200	0.256972	0.044374	-0.967087	0.227333	0.081121	-0.967087	0.158146	0.081121	-0.796425	0.128493	0.068035	-0.739537	0.079066	0.051680	-0.682650	0.988383	0.377417	-5.062258	0.000000	0.000000	26.472934	0.676273	7.305651	14.115111	-11.789903	76.840051	30.910338	54.729190	-4.894366	-1.836263	-2.690484	-17.208818	37.149634	43.381741	76.889504	-0.629504	5.853145
3.525000	-0.821143	-6.283175	101.211832	0.269969	0.748611	0.905168	1.545278	-0.029067	-13.050106	5.081946	0.088697	24.658702	14.120613	0.000000	4.072141	1.027227	0.509393	6.915744	0.120702	25.212877	2.828438	0.000000	0.150561	0.031242	-0.842794	0.279606	0.041552	-0.895468	0.247356	0.075962	-0.895468	0.172076	0.075962	-0.737444	0.139811	0.063709	-0.684770	0.086030	0.048394	-0.632095	1.075440	0.353419	-4.687365	0.000000	0.000000	26.861797	0.596887	6.201962	14.149778	-11.328371	72.752663	33.203082	61.071997	-4.573640	-1.580917	-1.634538	-16.543828	37.108050	44.748511	74.397326	1.047997	6.869413
3.550000	-0.775127	-6.435928	101.201706	0.270206	0.748794	0.906168	1.882867	-0.037145	-13.329834	5.279253	0.092140	24.651046	14.408462	0.000000	4.382325	0.997193	0.374769	7.102829	0.123968	25.220064	2.962255	0.000000	0.161562	0.032712	-0.774507	0.300036	0.043507	-0.822914	0.265429	0.079535	-0.822914	0.184649	0.079535	-0.677694	0.150026	0.066706	-0.629287	0.092316	0.050671	-0.580880	1.154018	0.370042	-4.307575	0.000000	0.000000	27.198185	0.488072	5.104260	14.246399	-10.894349	69.470413	35.359099	67.146593	-4.236522	-1.355228	-0.450519	-15.855676	37.560435	45.939862	71.275492	2.432221	7.417112
3.575000	-0.731330	-6.557778	101.163087	0.270367	0.749060	0.907068	2.183056	-0.046425	-13.594712	5.467328	0.095423	24.661823	14.743147	0.000000	4.643963	0.969179	0.218757	7.270577	0.126896	25.231098	3.097161	0.000000	0.170593	0.035966	-0.703465	0.316809	0.047834	-0.747432	0.280268	0.087447	-0.747432	0.194971	0.087447	-0.615532	0.158413	0.073341	-0.571565	0.097477	0.055711	-0.527599	1.218531	0.406851	-3.912462	0.000000	0.000000	27.467993	0.368759	4.083661	14.487073	-10.432071	67.724274	37.280666	72.270796	-3.783531	-1.213598	0.891305	-15.202668	38.963810	46.909704	67.851703	3.065768	7.490070
